<svg width="300" height="238" viewBox="0 0 300 238" fill="none"
    xmlns="http://www.w3.org/2000/svg">
    <path d="M270.984 0H28.8281C12.9068 0 0 13.1551 0 29.3827V208.617C0 224.845 12.9068 238 28.8281 238H270.984C286.905 238 299.812 224.845 299.812 208.617V29.3827C299.812 13.1551 286.905 0 270.984 0Z" fill="#F6F4F5"/>
    <path d="M226.019 145.376C226.019 146.995 227.011 148.209 228.203 148.209H229.592C230.784 148.209 231.776 146.995 231.776 145.376V97.0116L226.019 99.44V145.376Z" fill="#B40C32"/>
    <path d="M94.5848 108.344C94.5848 115.831 94.5848 130.806 94.5848 131.211C94.5848 148.006 119.005 155.291 149.183 155.291C179.362 155.291 203.782 147.804 203.782 131.211C203.782 130.603 203.782 127.973 203.782 126.961V108.141L149.183 127.366L94.5848 108.344Z" fill="#B40C32"/>
    <path d="M241.108 87.2983L149.183 121.7L57.6562 87.7031L147.992 58.7655L214.702 79.2039H149.183V84.0606H230.585L241.108 87.2983Z" fill="#B40C32"/>
    <path d="M228.798 150.839C231.869 150.839 234.357 148.303 234.357 145.173C234.357 142.044 231.869 139.507 228.798 139.507C225.728 139.507 223.239 142.044 223.239 145.173C223.239 148.303 225.728 150.839 228.798 150.839Z" fill="#B40C32"/>
    <path d="M233.166 180.586H224.43C222.644 180.586 221.055 179.372 221.055 177.956L228.798 144.971L236.541 177.956C236.541 179.575 235.152 180.586 233.166 180.586Z" fill="#B40C32"/>
</svg>
