<svg xmlns="http://www.w3.org/2000/svg" width="1182" height="245" viewBox="0 0 1182 245" fill="none">
<g clip-path="url(#clip0_19_107)" filter="url(#filter0_d_19_107)">
<path d="M272.922 0H32.6088C16.8086 0 4 13.0998 4 29.2593V207.741C4 223.9 16.8086 237 32.6088 237H272.922C288.723 237 301.531 223.9 301.531 207.741V29.2593C301.531 13.0998 288.723 0 272.922 0Z" fill="#F6F4F5"/>
<path d="M228.299 144.765C228.299 146.377 229.284 147.586 230.466 147.586H231.846C233.028 147.586 234.013 146.377 234.013 144.765V96.6039L228.299 99.0221V144.765Z" fill="#B40C32"/>
<path d="M97.8651 107.888C97.8651 115.344 97.8651 130.256 97.8651 130.659C97.8651 147.384 122.1 154.639 152.048 154.639C181.997 154.639 206.232 147.183 206.232 130.659C206.232 130.055 206.232 127.435 206.232 126.427V107.687L152.048 126.83L97.8651 107.888Z" fill="#B40C32"/>
<path d="M243.273 86.9314L152.048 121.188L61.2175 87.3345L150.866 58.5185L217.068 78.871H152.048V83.7073H232.831L243.273 86.9314Z" fill="#B40C32"/>
<path d="M231.057 150.206C234.104 150.206 236.574 147.679 236.574 144.563C236.574 141.447 234.104 138.921 231.057 138.921C228.011 138.921 225.541 141.447 225.541 144.563C225.541 147.679 228.011 150.206 231.057 150.206Z" fill="#B40C32"/>
<path d="M235.392 179.828H226.723C224.95 179.828 223.373 178.619 223.373 177.208L231.057 144.362L238.742 177.208C238.742 178.82 237.362 179.828 235.392 179.828Z" fill="#B40C32"/>
<path d="M419.825 85.0298H393.581L392.132 105.119H425.46C426.909 108.083 427.392 112.2 427.392 115.328C427.392 124.879 421.596 129.819 411.935 129.819H390.361L388.751 152.378H429.163C430.451 155.342 430.934 159.459 430.934 162.588C430.934 172.138 425.138 177.243 415.639 177.243H365.888C361.058 177.243 358.321 173.291 358.804 168.516L366.532 60.1652H433.349C434.637 63.1292 435.12 67.2458 435.12 70.3745C435.12 80.0898 429.324 85.0298 419.825 85.0298ZM486.32 177.243H452.509C448.001 177.243 445.264 173.785 445.586 169.339L453.475 64.1172C460.881 61.3179 482.134 58.8479 495.336 58.8479C520.453 58.8479 541.545 75.8085 541.545 112.858C541.545 154.519 521.902 177.243 486.32 177.243ZM487.93 154.025C500.811 154.025 512.242 141.84 512.242 113.352C512.242 91.9458 503.87 83.3832 492.76 83.3832C490.184 83.3832 483.905 83.7125 480.363 84.8651L475.372 154.025H487.93ZM597.575 178.725C565.696 178.725 553.781 159.624 556.035 128.831L560.866 63.2938C561.671 62.4705 567.306 60.1652 574.39 60.1652C584.533 60.1652 589.847 64.6112 589.042 74.8205L584.533 135.253C583.567 146.615 587.271 154.025 598.541 154.025C609.328 154.025 613.514 147.274 614.48 135.253L619.955 63.2938C620.76 62.4705 626.395 60.1652 633.479 60.1652C643.461 60.1652 648.936 64.6112 647.97 74.8205L643.622 133.442C641.851 157.483 630.903 178.725 597.575 178.725ZM705.127 178.89C676.79 178.89 659.723 160.612 659.723 124.55C659.723 85.3592 681.459 58.5185 714.304 58.5185C734.913 58.5185 749.081 71.3625 749.081 88.9818C749.081 102.155 741.353 108.906 729.921 108.906C726.862 108.906 724.769 108.577 723.32 107.754C723.803 106.107 723.964 104.79 723.964 102.32C723.964 89.8051 719.134 84.0418 711.245 84.0418C698.525 84.0418 689.348 98.5325 689.348 122.08C689.348 144.145 697.398 153.202 708.991 153.202C717.524 153.202 726.218 148.591 731.21 140.028C738.616 141.181 743.446 146.944 743.446 154.848C743.446 169.01 725.896 178.89 705.127 178.89ZM830.55 73.9972L850.676 171.315C847.456 176.255 841.176 177.243 835.702 177.243C825.881 177.243 821.373 173.126 820.246 165.222L818.153 150.567H783.536L776.613 173.785C771.622 176.255 766.792 177.243 762.445 177.243C752.14 177.243 748.276 168.516 751.496 159.459L785.951 64.7758C793.519 61.6472 800.603 60.1652 808.331 60.1652C822.822 60.1652 828.618 64.2818 830.55 73.9972ZM806.399 81.4072H805.594L790.138 129.654H814.449L806.399 81.4072ZM937.458 178.725C905.579 178.725 893.664 159.624 895.918 128.831L900.748 63.2938C901.553 62.4705 907.189 60.1652 914.273 60.1652C924.416 60.1652 929.729 64.6112 928.924 74.8205L924.416 135.253C923.45 146.615 927.153 154.025 938.424 154.025C949.211 154.025 953.397 147.274 954.363 135.253L959.837 63.2938C960.642 62.4705 966.278 60.1652 973.362 60.1652C983.344 60.1652 988.819 64.6112 987.852 74.8205L983.505 133.442C981.734 157.483 970.786 178.725 937.458 178.725ZM1083.49 60.1652C1084.94 63.1292 1085.42 67.2458 1085.42 70.3745C1085.42 78.9372 1079.63 85.0298 1071.74 85.0298H1055.31L1049.03 174.114C1047.59 175.102 1042.59 177.243 1036.32 177.243C1025.53 177.243 1020.21 172.632 1020.86 163.246L1026.33 85.0298H1000.41C999.123 81.2425 998.318 76.9612 998.318 73.3385C998.318 65.2698 1004.27 60.1652 1010.07 60.1652H1083.49ZM1129.22 146.944C1125.83 146.944 1123.42 146.615 1120.68 145.627L1118.27 174.114C1116.98 175.102 1111.99 177.243 1105.23 177.243C1095.08 177.243 1089.61 172.632 1090.25 163.246L1097.5 63.1292C1111.5 60.4945 1126.48 59.3419 1134.53 59.3419C1163.35 59.3419 1178 75.9732 1178 98.3678C1178 123.562 1159.81 146.944 1129.22 146.944ZM1130.5 122.574C1141.61 122.574 1149.02 113.188 1149.02 101.002C1149.02 90.7931 1143.54 83.3832 1134.05 83.3832C1131.79 83.3832 1128.57 83.8772 1125.03 85.0298L1122.45 121.586C1125.51 122.244 1128.89 122.574 1130.5 122.574Z" fill="#F6F4F5"/>
</g>

</svg>