<svg width="891" height="246" viewBox="0 0 891 246" fill="none" xmlns="http://www.w3.org/2000/svg">
<g clip-path="url(#clip0_19_107)" filter="url(#filter0_d_19_107)">
<path d="M123.012 85.3886H96.5673L95.1072 105.563H128.691C130.151 108.539 130.638 112.673 130.638 115.815C130.638 125.406 124.797 130.367 115.063 130.367H93.3225L91.7001 153.021H132.422C133.72 155.998 134.207 160.132 134.207 163.274C134.207 172.865 128.366 177.991 118.794 177.991H68.6621C63.7949 177.991 61.0368 174.022 61.5235 169.227L69.311 60.4191H136.641C137.938 63.3956 138.425 67.5296 138.425 70.6714C138.425 80.4278 132.585 85.3886 123.012 85.3886ZM190.017 177.991H155.947C151.404 177.991 148.646 174.518 148.971 170.054L156.921 64.3877C164.384 61.5766 185.799 59.0962 199.103 59.0962C224.412 59.0962 245.666 76.1284 245.666 113.335C245.666 155.171 225.873 177.991 190.017 177.991ZM191.64 154.675C204.619 154.675 216.138 142.438 216.138 113.831C216.138 92.3338 207.702 83.735 196.507 83.735C193.911 83.735 187.584 84.0657 184.015 85.2232L178.985 154.675H191.64ZM302.125 179.479C270.002 179.479 257.996 160.297 260.267 129.375L265.135 63.5609C265.946 62.7341 271.624 60.4191 278.763 60.4191C288.984 60.4191 294.338 64.8838 293.527 75.1362L288.984 135.824C288.01 147.234 291.742 154.675 303.099 154.675C313.969 154.675 318.187 147.895 319.16 135.824L324.677 63.5609C325.488 62.7341 331.166 60.4191 338.305 60.4191C348.364 60.4191 353.88 64.8838 352.906 75.1362L348.526 134.005C346.741 158.148 335.709 179.479 302.125 179.479ZM410.501 179.644C381.947 179.644 364.75 161.289 364.75 125.075C364.75 85.7193 386.652 58.7654 419.749 58.7654C440.516 58.7654 454.793 71.6636 454.793 89.3573C454.793 102.586 447.005 109.366 435.486 109.366C432.404 109.366 430.295 109.035 428.835 108.208C429.321 106.555 429.484 105.232 429.484 102.752C429.484 90.1841 424.616 84.3964 416.667 84.3964C403.85 84.3964 394.602 98.9482 394.602 122.595C394.602 144.753 402.714 153.848 414.395 153.848C422.994 153.848 431.755 149.218 436.784 140.619C444.247 141.777 449.115 147.564 449.115 155.502C449.115 169.723 431.43 179.644 410.501 179.644ZM536.886 74.3094L557.166 172.038C553.922 176.999 547.594 177.991 542.078 177.991C532.181 177.991 527.639 173.857 526.503 165.92L524.394 151.202H489.512L482.536 174.518C477.507 176.999 472.639 177.991 468.259 177.991C457.876 177.991 453.982 169.227 457.227 160.132L491.946 65.0492C499.571 61.9073 506.71 60.4191 514.497 60.4191C529.099 60.4191 534.939 64.5531 536.886 74.3094ZM512.55 81.7506H511.739L496.164 130.201H520.662L512.55 81.7506ZM644.614 179.479C612.49 179.479 600.484 160.297 602.756 129.375L607.623 63.5609C608.434 62.7341 614.112 60.4191 621.251 60.4191C631.472 60.4191 636.826 64.8838 636.015 75.1362L631.472 135.824C630.499 147.234 634.23 154.675 645.587 154.675C656.457 154.675 660.675 147.895 661.649 135.824L667.165 63.5609C667.976 62.7341 673.655 60.4191 680.793 60.4191C690.852 60.4191 696.368 64.8838 695.395 75.1362L691.014 134.005C689.23 158.148 678.197 179.479 644.614 179.479ZM791.765 60.4191C793.225 63.3956 793.712 67.5296 793.712 70.6714C793.712 79.2702 787.871 85.3886 779.922 85.3886H763.373L757.046 174.849C755.586 175.841 750.556 177.991 744.229 177.991C733.359 177.991 728.005 173.361 728.654 163.935L734.17 85.3886H708.049C706.751 81.5853 705.94 77.2859 705.94 73.648C705.94 65.5453 711.943 60.4191 717.784 60.4191H791.765ZM837.841 147.564C834.434 147.564 832.001 147.234 829.243 146.242L826.809 174.849C825.511 175.841 820.482 177.991 813.668 177.991C803.446 177.991 797.93 173.361 798.579 163.935L805.88 63.3956C819.995 60.7498 835.083 59.5922 843.195 59.5922C872.236 59.5922 887 76.2937 887 98.7829C887 124.083 868.667 147.564 837.841 147.564ZM839.139 123.091C850.334 123.091 857.797 113.665 857.797 101.429C857.797 91.1762 852.281 83.735 842.708 83.735C840.437 83.735 837.192 84.2311 833.623 85.3886L831.027 122.099C834.11 122.76 837.517 123.091 839.139 123.091Z" fill="#F6F4F5"/>
</g>
<defs>
<filter id="filter0_d_19_107" x="0" y="0" width="891" height="246" filterUnits="userSpaceOnUse" color-interpolation-filters="sRGB">
<feFlood flood-opacity="0" result="BackgroundImageFix"/>
<feColorMatrix in="SourceAlpha" type="matrix" values="0 0 0 0 0 0 0 0 0 0 0 0 0 0 0 0 0 0 127 0" result="hardAlpha"/>
<feOffset dy="4"/>
<feGaussianBlur stdDeviation="2"/>
<feComposite in2="hardAlpha" operator="out"/>
<feColorMatrix type="matrix" values="0 0 0 0 0 0 0 0 0 0 0 0 0 0 0 0 0 0 0.25 0"/>
<feBlend mode="normal" in2="BackgroundImageFix" result="effect1_dropShadow_19_107"/>
<feBlend mode="normal" in="SourceGraphic" in2="effect1_dropShadow_19_107" result="shape"/>
</filter>
<clipPath id="clip0_19_107">
<rect width="883" height="238" fill="white" transform="translate(4)"/>
</clipPath>
</defs>
</svg>
